<svg width="512" height="512" viewBox="0 0 512 512" fill="none" xmlns="http://www.w3.org/2000/svg">
  <defs>
    <linearGradient id="bg" x1="64" y1="48" x2="448" y2="464" gradientUnits="userSpaceOnUse">
      <stop stop-color="#0F172A"/>
      <stop offset="1" stop-color="#111827"/>
    </linearGradient>
    <linearGradient id="signal" x1="104" y1="120" x2="410" y2="380" gradientUnits="userSpaceOnUse">
      <stop stop-color="#22D3EE"/>
      <stop offset="1" stop-color="#3B82F6"/>
    </linearGradient>
    <linearGradient id="plug" x1="104" y1="336" x2="412" y2="336" gradientUnits="userSpaceOnUse">
      <stop stop-color="#14B8A6"/>
      <stop offset="1" stop-color="#06B6D4"/>
    </linearGradient>
  </defs>
  <rect x="24" y="24" width="464" height="464" rx="116" fill="url(#bg)"/>
  <path d="M112 180C112 143.49 141.49 114 178 114H334C370.51 114 400 143.49 400 180V200C400 236.51 370.51 266 334 266H268" stroke="url(#signal)" stroke-width="32" stroke-linecap="round"/>
  <path d="M112 336H302C348.392 336 386 298.392 386 252V236" stroke="url(#plug)" stroke-width="32" stroke-linecap="round"/>
  <rect x="358" y="194" width="54" height="86" rx="18" fill="#E2E8F0"/>
  <rect x="346" y="212" width="12" height="20" rx="6" fill="#E2E8F0"/>
  <rect x="346" y="242" width="12" height="20" rx="6" fill="#E2E8F0"/>
  <circle cx="160" cy="336" r="22" fill="#67E8F9"/>
  <circle cx="112" cy="336" r="18" fill="#A5F3FC"/>
</svg>
